# xmcd
# 
# Track frame offsets:
#     150
#     20127
#     34095
#     51330
#     64650
#     78602
#     91325
#     106020
#     120075
#     138687
#     149147
#     163880
#     176305
#     188557
# 
# Disc length: 2669
# 
# Revision: 0
# Processed by: cddbd v1.5.2PL0 Copyright (c) Steve Scherf et al.
# Submitted via: fre:ac v1.0.17
# 
DISCID=c00a6b0e
DTITLE=Barbara Ray - Working Man
DYEAR=1996
DGENRE=Country
TTITLE0=Working Man
TTITLE1=The Way Love's Supposed To Be
TTITLE2=Chasing The Wind
TTITLE3=Thank You For Loving Me
TTITLE4=The Highway Song
TTITLE5=Except For Mondays
TTITLE6=Saddle The Wind
TTITLE7=My Colouring Book
TTITLE8=A Fallen Star
TTITLE9=God Bless The Children
TTITLE10=One Drink Too Many
TTITLE11=You Belong To Me
TTITLE12=The Way Old Friends Do
TTITLE13=Marble's
EXTD=
EXTT0=
EXTT1=
EXTT2=
EXTT3=
EXTT4=
EXTT5=
EXTT6=
EXTT7=
EXTT8=
EXTT9=
EXTT10=
EXTT11=
EXTT12=
EXTT13=
PLAYORDER=
